# xmcd
#
# Track frame offsets:
#	150
#	25336
#	45761
#	76392
#	112738
#	144995
#	159412
#	198924
#	223544
#	253365
#	281966
#
# Disc length: 4290 seconds
#
# Revision: 3
# Processed by: cddbd v1.5PL3 Copyright (c) Steve Scherf et al.
# Submitted via: audiograbber 1.80
#
DISCID=9210c00b
DTITLE=Bruce Springsteen and E Street Band - Barcelona 16 Oct 2002 (C 2)
DYEAR=1900
DGENRE=
TTITLE0=Dancing In The Dark
TTITLE1=Countin On A MIracle
TTITLE2=Spirit In The NIght (Piano)
TTITLE3=Incident On 57th Street (Piano)
TTITLE4=Into The Fire
TTITLE5=Night Hamrod
TTITLE6=Born To Run
TTITLE7=My City Of Ruins
TTITLE8=Born In The USA
TTITLE9=Land Of Hope And Dreams
TTITLE10=Thurnder Road
EXTD=
EXTT0=
EXTT1=
EXTT2=
EXTT3=
EXTT4=
EXTT5=
EXTT6=
EXTT7=
EXTT8=
EXTT9=
EXTT10=
PLAYORDER=
